<?xml version="1.0" encoding="UTF-8"?>
<svg xmlns="http://www.w3.org/2000/svg" version="1.1" viewBox="0 0 375.49 168.28">
  <defs>
    <style>
      .cls-1 {
        fill: #F97316;
      }
    </style>
  </defs>
  <!-- Generator: Adobe Illustrator 28.7.0, SVG Export Plug-In . SVG Version: 1.2.0 Build 136)  -->
  <g>
    <g id="_레이어_1" data-name="레이어_1">
      <g>
        <path class="cls-1" d="M125.65,53.25c.67-.78,1.6-1.01,2.79-.71,1.19.31,2.33.88,3.42,1.71,1.08.83,1.97,1.81,2.67,2.92.69,1.11.88,2.08.54,2.92-1.28,2.83-2.85,6-4.71,9.5-1.86,3.5-3.85,7.12-5.96,10.84-2.11,3.72-4.27,7.45-6.46,11.17-2.2,3.72-4.29,7.25-6.29,10.59-1.5,2.5-2.93,4.93-4.29,7.29-1.36,2.36-2.56,4.49-3.58,6.38-1.03,1.89-1.85,3.47-2.46,4.75-.61,1.28-.92,2.11-.92,2.5.05.44.19.79.42,1.04.22.25.42.4.58.46,4.61-3,9.23-6.41,13.84-10.21,4.61-3.81,9.09-7.92,13.42-12.34,4.33-4.42,8.5-9.06,12.51-13.92,4-4.86,7.72-9.84,11.17-14.92,3.45-5.09,6.56-10.23,9.34-15.42,2.78-5.2,5.11-10.32,7-15.38.28-.44.85-.46,1.71-.04.86.42,1.74,1.01,2.63,1.79.89.78,1.65,1.61,2.29,2.5.64.89.88,1.58.71,2.08-1.39,3.28-3.32,6.93-5.79,10.96-2.47,4.03-5.31,8.2-8.5,12.51-3.2,4.31-6.66,8.68-10.38,13.13-3.72,4.45-7.56,8.74-11.51,12.88-3.95,4.14-7.89,8.03-11.84,11.67-3.95,3.64-7.73,6.85-11.34,9.63-3.61,2.78-6.98,5-10.09,6.67-3.11,1.67-5.81,2.61-8.09,2.83-1-.06-1.99-.29-2.96-.71-.97-.42-1.85-.95-2.63-1.58-.78-.64-1.4-1.38-1.88-2.21-.47-.83-.71-1.67-.71-2.5.61-1.61,1.24-3.18,1.88-4.71.64-1.53,1.32-3.1,2.04-4.71-1.56,1.67-3.13,3.27-4.71,4.79s-3.14,2.9-4.67,4.13c-1.53,1.22-3.02,2.28-4.46,3.17-1.45.89-2.81,1.53-4.08,1.92-1.45.33-2.83.5-4.17.5-1.83,0-3.43-.31-4.79-.92-1.36-.61-2.49-1.43-3.38-2.46-.89-1.03-1.56-2.24-2-3.63-.45-1.39-.67-2.86-.67-4.42,0-.67.04-1.33.12-2,.08-.67.18-1.33.29-2,.83-3.39,2.26-7.41,4.29-12.05,2.03-4.64,4.45-9.55,7.25-14.72,2.81-5.17,5.88-10.43,9.21-15.8,3.33-5.36,6.72-10.52,10.17-15.47.44-.5.68-1.13.71-1.88.03-.75-.18-1.15-.62-1.21-4,.39-7.98,1.26-11.92,2.63-3.95,1.36-7.7,3.06-11.25,5.09-3.56,2.03-6.87,4.29-9.92,6.79-3.06,2.5-5.7,5.03-7.92,7.59-2.22,2.56-3.95,5.09-5.17,7.59-1.22,2.5-1.78,4.75-1.67,6.75h-.25c-.28.39-.96.49-2.04.29s-2.18-.63-3.29-1.29c-1.11-.67-2.07-1.54-2.88-2.63s-1.07-2.32-.79-3.71c1.06-3.95,2.78-7.56,5.17-10.84,2.39-3.28,5.17-6.22,8.34-8.84,3.17-2.61,6.61-4.89,10.34-6.84,3.72-1.95,7.48-3.57,11.26-4.88,3.78-1.3,7.45-2.29,11-2.96,3.56-.67,6.75-1,9.59-1h2c.67,0,1.28.06,1.83.17,1,.11,2.01.45,3.04,1,1.03.56,1.96,1.2,2.79,1.92.83.72,1.51,1.49,2.04,2.29.53.81.79,1.54.79,2.21,0,.33-.25,1.03-.75,2.08-.5,1.06-1.18,2.39-2.04,4-.86,1.61-1.89,3.43-3.08,5.46-1.2,2.03-2.46,4.21-3.79,6.54-1.56,2.72-3.2,5.57-4.92,8.55-1.72,2.97-3.43,5.99-5.13,9.05-1.7,3.06-3.29,6.09-4.79,9.09-1.5,3-2.83,5.85-4,8.55-1.17,2.7-2.08,5.18-2.75,7.46-.67,2.28-1,4.22-1,5.84s.36,2.72,1.08,3.5c.72.78,1.83,1.03,3.33.75,1.89-.5,3.95-1.67,6.17-3.5,2.22-1.83,4.5-4.04,6.84-6.63,2.33-2.58,4.65-5.42,6.96-8.5,2.31-3.08,4.47-6.14,6.5-9.17,2.03-3.03,3.89-5.89,5.59-8.59,1.7-2.7,3.07-4.93,4.13-6.71l.25-.17c1.95-3.5,3.89-7.03,5.84-10.59,1.94-3.56,3.86-7.34,5.75-11.34.05-.05.17-.29.33-.71s.33-.88.5-1.38c.17-.5.3-.97.42-1.42.11-.44.17-.72.17-.83h.25Z"/>
        <path class="cls-1" d="M195.21,100.52c0,7.17-1.38,12.62-4.15,16.37-3.31,4.45-8.74,6.68-16.28,6.68s-13.25-1.93-16.45-5.78c-2.93-3.53-4.4-9.33-4.4-17.42v-14.49c0-6.95,1.47-12.27,4.4-15.96,3.47-4.29,8.96-6.43,16.45-6.43,6.68,0,11.78,1.95,15.31,5.86,3.42,3.75,5.13,8.93,5.13,15.55v15.63ZM183.98,84.81c0-4.67-.73-7.95-2.2-9.85-1.36-1.79-3.69-2.69-7-2.69-3.58,0-6.08.87-7.49,2.61-1.41,1.74-2.12,4.8-2.12,9.2v20.27c0,3.91.71,6.62,2.12,8.14,1.41,1.52,3.91,2.28,7.49,2.28s5.78-.81,7.08-2.44c1.41-1.68,2.12-4.78,2.12-9.28v-18.24Z"/>
        <path class="cls-1" d="M241.22,100.52c0,7.17-1.38,12.62-4.15,16.37-3.31,4.45-8.74,6.68-16.28,6.68s-13.25-1.93-16.45-5.78c-2.93-3.53-4.4-9.33-4.4-17.42v-14.49c0-6.95,1.47-12.27,4.4-15.96,3.47-4.29,8.96-6.43,16.45-6.43,6.68,0,11.78,1.95,15.31,5.86,3.42,3.75,5.13,8.93,5.13,15.55v15.63ZM229.98,84.81c0-4.67-.73-7.95-2.2-9.85-1.36-1.79-3.69-2.69-7-2.69-3.58,0-6.08.87-7.49,2.61-1.41,1.74-2.12,4.8-2.12,9.2v20.27c0,3.91.71,6.62,2.12,8.14,1.41,1.52,3.91,2.28,7.49,2.28s5.78-.81,7.08-2.44c1.41-1.68,2.12-4.78,2.12-9.28v-18.24Z"/>
        <path class="cls-1" d="M287.34,122.59h-10.01l-.81-3.66c-.81,1.57-1.98,2.71-3.5,3.42-1.9.87-4.8,1.3-8.71,1.3-5.97,0-10.45-2.04-13.43-6.11-2.44-3.31-3.66-7.57-3.66-12.78v-22.47c0-5.26,1.25-9.63,3.75-13.11,2.82-3.8,6.7-5.7,11.64-5.7,3.69,0,6.6.41,8.71,1.22,2.01.76,3.66,2.04,4.97,3.83v-16.85h11.07v70.92ZM260.8,111.6c1.63,2.23,3.66,3.34,6.11,3.34,3.42,0,5.78-.6,7.08-1.79,1.52-1.41,2.28-4.07,2.28-7.98v-21.66c0-4.34-.76-7.33-2.28-8.96-1.36-1.47-3.72-2.2-7.08-2.2-2.61,0-4.7,1-6.27,3.01-1.52,2.01-2.28,4.56-2.28,7.65v20.19c0,3.42.81,6.22,2.44,8.39Z"/>
        <path class="cls-1" d="M304.61,84.65h-10.83v-4.07c0-5.59,1.49-9.8,4.48-12.62,3.15-2.98,8.06-4.48,14.74-4.48,7.71,0,13,1.58,15.88,4.72,2.33,2.61,3.5,7.03,3.5,13.27v41.12h-10.58v-3.5c-1.74,1.84-3.75,3.09-6.02,3.75-1.79.49-4.53.73-8.22.73-4.13,0-7.49-1.3-10.1-3.91-2.44-2.44-3.66-5.43-3.66-8.96v-4.72c0-3.53,1-6.54,3.01-9.04,1.68-2.06,4.26-3.99,7.74-5.78,2.01-1.09,4.02-2.06,6.03-2.93,1.19-.49,2.71-1.08,4.56-1.79,2.55-.98,4.15-1.76,4.8-2.36.92-.81,1.38-2.12,1.38-3.91,0-2.98-.52-5.02-1.55-6.11-1.09-1.19-3.2-1.79-6.35-1.79s-5.4.46-6.76,1.38c-1.36,1.03-2.04,2.8-2.04,5.29v5.7ZM312.02,96.29c-2.17,1.14-3.8,2.28-4.88,3.42-.92,1.03-1.55,2.14-1.87,3.34-.22.87-.33,2.12-.33,3.75l-.08.57c0,2.99.33,4.91.98,5.78.92,1.3,3.15,1.95,6.68,1.95,2.61,0,4.75-.76,6.43-2.28,1.57-1.41,2.36-3.12,2.36-5.13v-15.31c-3.91,1.41-7,2.71-9.28,3.91Z"/>
      </g>
    </g>
  </g>
</svg>