<svg width="64" height="40" viewBox="0 0 64 40" fill="none" xmlns="http://www.w3.org/2000/svg">
<path d="M41.1105 5.38984C41.4105 5.08984 41.8105 4.88984 42.3105 5.08984C42.8105 5.18984 43.3105 5.48984 43.8105 5.88984C44.3105 6.28984 44.7105 6.68984 45.0105 7.18984C45.3105 7.68984 45.4105 8.08985 45.2105 8.48985C44.6105 9.78985 43.9105 11.1898 43.1105 12.6898C42.3105 14.1898 41.4105 15.8898 40.4105 17.4898C39.5105 19.1898 38.5105 20.7898 37.5105 22.4898C36.5105 24.1898 35.6105 25.6898 34.7105 27.1898C34.0105 28.2898 33.4105 29.3898 32.8105 30.4898C32.2105 31.5898 31.7105 32.4898 31.2105 33.3898C30.7105 34.1898 30.4105 34.9898 30.1105 35.4898C29.8105 35.9898 29.7105 36.3898 29.7105 36.5898C29.7105 36.7898 29.7105 36.9898 29.9105 37.0898C29.9105 37.1898 30.1105 37.2898 30.2105 37.2898C32.3105 35.9898 34.3105 34.3898 36.4105 32.6898C38.5105 30.9898 40.5105 29.1898 42.4105 27.1898C44.3105 25.1898 46.2105 23.1898 48.0105 20.9898C49.8105 18.7898 51.4105 16.5898 53.0105 14.2898C54.5105 11.9898 55.9105 9.68984 57.2105 7.38984C58.4105 5.08984 59.5105 2.78984 60.3105 0.489844C60.4105 0.289844 60.7105 0.289844 61.1105 0.489844C61.5105 0.689844 61.9105 0.989845 62.3105 1.28984C62.7105 1.58984 63.0105 1.98984 63.3105 2.38984C63.6105 2.78984 63.7105 3.08984 63.6105 3.28984C63.0105 4.78984 62.1105 6.38984 61.0105 8.18984C59.9105 9.98984 58.6105 11.8898 57.2105 13.7898C55.8105 15.6898 54.2105 17.6898 52.6105 19.6898C51.0105 21.6898 49.2105 23.5898 47.5105 25.4898C45.8105 27.3898 44.0105 29.0898 42.2105 30.6898C40.4105 32.2898 38.7105 33.7898 37.1105 34.9898C35.5105 36.1898 34.0105 37.1898 32.6105 37.9898C31.2105 38.6898 30.0105 39.1898 29.0105 39.2898C28.6105 39.2898 28.1105 39.1898 27.7105 38.9898C27.3105 38.7898 26.9105 38.5898 26.5105 38.2898C26.2105 37.9898 25.9105 37.6898 25.7105 37.2898C25.5105 36.8898 25.4105 36.5898 25.4105 36.1898C25.7105 35.4898 26.0105 34.7898 26.2105 34.0898C26.4105 33.3898 26.8105 32.6898 27.1105 31.9898C26.4105 32.6898 25.7105 33.4898 25.0105 34.0898C24.3105 34.6898 23.6105 35.3898 22.9105 35.8898C22.2105 36.3898 21.6105 36.8898 20.9105 37.2898C20.3105 37.6898 19.6105 37.9898 19.1105 38.1898C18.5105 38.2898 17.8105 38.3898 17.2105 38.3898C16.6105 38.3898 15.7105 38.2898 15.1105 37.9898C14.5105 37.6898 14.0105 37.3898 13.6105 36.8898C13.2105 36.3898 12.9105 35.8898 12.7105 35.2898C12.5105 34.6898 12.4105 33.9898 12.4105 33.2898V32.3898C12.4105 32.0898 12.4105 31.7898 12.5105 31.4898C12.9105 29.9898 13.5105 28.1898 14.4105 26.0898C15.3105 23.9898 16.4105 21.7898 17.6105 19.4898C18.9105 17.1898 20.2105 14.7898 21.7105 12.3898C23.2105 9.98984 24.7105 7.68985 26.2105 5.48985C26.4105 5.28985 26.5105 4.98984 26.5105 4.68984C26.5105 4.38984 26.5105 4.18984 26.2105 4.18984C24.4105 4.38984 22.6105 4.78984 20.9105 5.38984C19.1105 5.98984 17.5105 6.78984 15.9105 7.68984C14.3105 8.58984 12.8105 9.58984 11.5105 10.6898C10.1105 11.7898 9.01048 12.8898 8.01048 14.0898C7.01048 15.1898 6.21048 16.3898 5.71048 17.4898C5.21048 18.5898 4.91048 19.5898 5.01048 20.4898H4.91048C4.81048 20.6898 4.51048 20.6898 4.01048 20.5898C3.51048 20.4898 3.01048 20.2898 2.51048 19.9898C2.01048 19.6898 1.61048 19.2898 1.21048 18.7898C0.810482 18.2898 0.710482 17.7898 0.810482 17.0898C1.31048 15.2898 2.01048 13.6898 3.11048 12.2898C4.21048 10.7898 5.41048 9.48984 6.81048 8.38984C8.21048 7.18984 9.81048 6.18984 11.4105 5.28984C13.1105 4.38985 14.7105 3.68984 16.4105 3.08984C18.1105 2.48984 19.7105 2.08984 21.3105 1.78984C22.9105 1.48984 24.3105 1.38984 25.6105 1.38984H27.3105C27.7105 1.38984 28.2105 1.58984 28.7105 1.78984C29.2105 2.08984 29.6105 2.28984 29.9105 2.68984C30.3105 2.98984 30.6105 3.38984 30.8105 3.68984C31.0105 4.08984 31.2105 4.38984 31.2105 4.68984C31.2105 4.98984 31.1105 5.18984 30.9105 5.58984C30.7105 6.08984 30.4105 6.68984 30.0105 7.38984C29.6105 8.08984 29.2105 8.88984 28.6105 9.78984C28.1105 10.6898 27.5105 11.6898 26.9105 12.6898C26.2105 13.8898 25.5105 15.1898 24.7105 16.4898C23.9105 17.7898 23.2105 19.1898 22.4105 20.4898C21.6105 21.8898 20.9105 23.1898 20.3105 24.5898C19.7105 25.9898 19.0105 27.1898 18.5105 28.3898C18.0105 29.5898 17.6105 30.6898 17.3105 31.6898C17.0105 32.6898 16.9105 33.5898 16.9105 34.2898C16.9105 34.9898 17.1105 35.4898 17.4105 35.8898C17.7105 36.2898 18.2105 36.3898 18.9105 36.1898C19.7105 35.9898 20.7105 35.4898 21.7105 34.5898C22.7105 33.6898 23.7105 32.7898 24.8105 31.5898C25.8105 30.3898 26.9105 29.1898 27.9105 27.7898C28.9105 26.3898 29.9105 25.0898 30.8105 23.6898C31.7105 22.2898 32.5105 21.0898 33.3105 19.8898C34.1105 18.6898 34.7105 17.6898 35.1105 16.8898H35.2105C36.1105 15.2898 36.9105 13.6898 37.8105 12.0898C38.7105 10.4898 39.5105 8.78985 40.4105 6.98985C40.4105 6.98985 40.4105 6.88984 40.5105 6.68984C40.6105 6.48984 40.6105 6.28984 40.7105 6.08984C40.8105 5.88984 40.8105 5.68985 40.9105 5.48985L41.1105 5.38984Z" fill="#10B981"/>
</svg>
